<mxfile host="app.diagrams.net" agent="Mozilla/5.0 (Windows NT 10.0; Win64; x64) AppleWebKit/537.36 (KHTML, like Gecko) Chrome/138.0.0.0 Safari/537.36" version="28.1.1">
  <diagram name="Page-1" id="J7rgWJNkV7y34eGUgGvf">
    <mxGraphModel dx="2153" dy="1769" grid="1" gridSize="10" guides="1" tooltips="1" connect="1" arrows="1" fold="1" page="1" pageScale="1" pageWidth="850" pageHeight="1100" math="0" shadow="0">
      <root>
        <mxCell id="0" />
        <mxCell id="1" parent="0" />
        <mxCell id="XoY1kQkNOBvQUMA4EXnS-1" value="" style="rounded=0;whiteSpace=wrap;html=1;" vertex="1" parent="1">
          <mxGeometry x="-60" y="-470" width="1400" height="1000" as="geometry" />
        </mxCell>
        <mxCell id="XoY1kQkNOBvQUMA4EXnS-2" value="" style="rounded=1;whiteSpace=wrap;html=1;fillColor=#f8cecc;strokeColor=#b85450;" vertex="1" parent="1">
          <mxGeometry x="540" y="-375" width="270" height="170" as="geometry" />
        </mxCell>
        <mxCell id="XoY1kQkNOBvQUMA4EXnS-3" value="" style="rounded=1;whiteSpace=wrap;html=1;fillColor=#fff2cc;strokeColor=#d6b656;" vertex="1" parent="1">
          <mxGeometry x="-10" y="265" width="50" height="200" as="geometry" />
        </mxCell>
        <mxCell id="XoY1kQkNOBvQUMA4EXnS-4" value="" style="rounded=1;whiteSpace=wrap;html=1;fillColor=#d5e8d4;strokeColor=#82b366;" vertex="1" parent="1">
          <mxGeometry x="660" y="-120" width="347.5" height="280" as="geometry" />
        </mxCell>
        <mxCell id="XoY1kQkNOBvQUMA4EXnS-5" value="" style="rounded=1;whiteSpace=wrap;html=1;fillColor=#fff2cc;strokeColor=#d6b656;" vertex="1" parent="1">
          <mxGeometry x="410" y="260" width="340" height="220" as="geometry" />
        </mxCell>
        <mxCell id="XoY1kQkNOBvQUMA4EXnS-6" value="" style="rounded=1;whiteSpace=wrap;html=1;fillColor=#fff2cc;strokeColor=#d6b656;" vertex="1" parent="1">
          <mxGeometry x="70" y="270" width="310" height="210" as="geometry" />
        </mxCell>
        <mxCell id="XoY1kQkNOBvQUMA4EXnS-7" value="" style="rounded=1;whiteSpace=wrap;html=1;fillColor=#d5e8d4;strokeColor=#82b366;" vertex="1" parent="1">
          <mxGeometry x="310" y="-120" width="345" height="290" as="geometry" />
        </mxCell>
        <mxCell id="XoY1kQkNOBvQUMA4EXnS-8" value="&lt;font style=&quot;font-size: 16px;&quot;&gt;Edgeworker1&lt;/font&gt;" style="ellipse;whiteSpace=wrap;html=1;align=center;fontSize=16;" vertex="1" parent="1">
          <mxGeometry x="80" y="410" width="100" height="60" as="geometry" />
        </mxCell>
        <mxCell id="XoY1kQkNOBvQUMA4EXnS-9" value="&lt;font style=&quot;font-size: 18px;&quot;&gt;Edgemaster1&lt;/font&gt;" style="ellipse;whiteSpace=wrap;html=1;align=center;fillColor=#dae8fc;strokeColor=#6c8ebf;fontSize=18;" vertex="1" parent="1">
          <mxGeometry x="195" y="290" width="130" height="60" as="geometry" />
        </mxCell>
        <mxCell id="XoY1kQkNOBvQUMA4EXnS-10" value="" style="endArrow=classic;html=1;rounded=0;entryX=0.5;entryY=0;entryDx=0;entryDy=0;exitX=0;exitY=1;exitDx=0;exitDy=0;" edge="1" parent="1" source="XoY1kQkNOBvQUMA4EXnS-9" target="XoY1kQkNOBvQUMA4EXnS-8">
          <mxGeometry relative="1" as="geometry">
            <mxPoint x="100" y="462" as="sourcePoint" />
            <mxPoint x="223" y="360" as="targetPoint" />
          </mxGeometry>
        </mxCell>
        <mxCell id="XoY1kQkNOBvQUMA4EXnS-11" value="" style="endArrow=classic;html=1;rounded=0;dashed=1;dashPattern=8 8;exitX=1;exitY=0;exitDx=0;exitDy=0;" edge="1" parent="1" source="XoY1kQkNOBvQUMA4EXnS-8" target="XoY1kQkNOBvQUMA4EXnS-9">
          <mxGeometry width="50" height="50" relative="1" as="geometry">
            <mxPoint x="110" y="470" as="sourcePoint" />
            <mxPoint x="200" y="340" as="targetPoint" />
          </mxGeometry>
        </mxCell>
        <mxCell id="XoY1kQkNOBvQUMA4EXnS-12" value="" style="endArrow=classic;html=1;rounded=0;exitX=0.673;exitY=1.024;exitDx=0;exitDy=0;exitPerimeter=0;entryX=0.281;entryY=0.122;entryDx=0;entryDy=0;entryPerimeter=0;" edge="1" parent="1" source="XoY1kQkNOBvQUMA4EXnS-9" target="XoY1kQkNOBvQUMA4EXnS-24">
          <mxGeometry relative="1" as="geometry">
            <mxPoint x="269" y="341" as="sourcePoint" />
            <mxPoint x="237" y="429" as="targetPoint" />
          </mxGeometry>
        </mxCell>
        <mxCell id="XoY1kQkNOBvQUMA4EXnS-13" value="" style="endArrow=classic;html=1;rounded=0;dashed=1;dashPattern=8 8;exitX=0.565;exitY=0.018;exitDx=0;exitDy=0;exitPerimeter=0;entryX=1;entryY=1;entryDx=0;entryDy=0;" edge="1" parent="1" source="XoY1kQkNOBvQUMA4EXnS-24" target="XoY1kQkNOBvQUMA4EXnS-9">
          <mxGeometry width="50" height="50" relative="1" as="geometry">
            <mxPoint x="268.6399999999999" y="429.5050000000001" as="sourcePoint" />
            <mxPoint x="282" y="349" as="targetPoint" />
          </mxGeometry>
        </mxCell>
        <mxCell id="XoY1kQkNOBvQUMA4EXnS-14" value="&lt;font style=&quot;font-size: 18px;&quot;&gt;FogWorker1&lt;/font&gt;" style="ellipse;whiteSpace=wrap;html=1;align=center;fontSize=18;" vertex="1" parent="1">
          <mxGeometry x="325" y="90" width="125" height="60" as="geometry" />
        </mxCell>
        <mxCell id="XoY1kQkNOBvQUMA4EXnS-15" value="&lt;font style=&quot;font-size: 18px;&quot;&gt;FogWorker2&lt;/font&gt;" style="ellipse;whiteSpace=wrap;html=1;align=center;fontSize=18;" vertex="1" parent="1">
          <mxGeometry x="530" y="90" width="115" height="60" as="geometry" />
        </mxCell>
        <mxCell id="XoY1kQkNOBvQUMA4EXnS-16" value="&lt;font style=&quot;font-size: 18px;&quot;&gt;FogMaster1&lt;/font&gt;" style="ellipse;whiteSpace=wrap;html=1;align=center;fillColor=#dae8fc;strokeColor=#6c8ebf;fontSize=18;" vertex="1" parent="1">
          <mxGeometry x="430" y="-90" width="125" height="70" as="geometry" />
        </mxCell>
        <mxCell id="XoY1kQkNOBvQUMA4EXnS-17" value="" style="endArrow=classic;html=1;rounded=0;entryX=0.379;entryY=0.008;entryDx=0;entryDy=0;entryPerimeter=0;fillColor=#dae8fc;strokeColor=#000000;strokeWidth=4;" edge="1" parent="1" source="XoY1kQkNOBvQUMA4EXnS-14" target="XoY1kQkNOBvQUMA4EXnS-9">
          <mxGeometry relative="1" as="geometry">
            <mxPoint x="183" y="160" as="sourcePoint" />
            <mxPoint x="100" y="263" as="targetPoint" />
          </mxGeometry>
        </mxCell>
        <mxCell id="XoY1kQkNOBvQUMA4EXnS-18" value="" style="endArrow=classic;html=1;rounded=0;entryX=0.5;entryY=1;entryDx=0;entryDy=0;dashed=1;dashPattern=8 8;" edge="1" parent="1" source="XoY1kQkNOBvQUMA4EXnS-9" target="XoY1kQkNOBvQUMA4EXnS-14">
          <mxGeometry width="50" height="50" relative="1" as="geometry">
            <mxPoint x="340" y="301" as="sourcePoint" />
            <mxPoint x="440" y="210" as="targetPoint" />
          </mxGeometry>
        </mxCell>
        <mxCell id="XoY1kQkNOBvQUMA4EXnS-19" value="" style="endArrow=classic;html=1;rounded=0;entryX=0.967;entryY=0.781;entryDx=0;entryDy=0;dashed=1;dashPattern=8 8;entryPerimeter=0;exitX=0.704;exitY=0.054;exitDx=0;exitDy=0;exitPerimeter=0;" edge="1" parent="1" target="XoY1kQkNOBvQUMA4EXnS-14" source="XoY1kQkNOBvQUMA4EXnS-25">
          <mxGeometry width="50" height="50" relative="1" as="geometry">
            <mxPoint x="555" y="280" as="sourcePoint" />
            <mxPoint x="500" y="180" as="targetPoint" />
          </mxGeometry>
        </mxCell>
        <mxCell id="XoY1kQkNOBvQUMA4EXnS-20" value="" style="endArrow=classic;html=1;rounded=0;entryX=0.61;entryY=0;entryDx=0;entryDy=0;exitX=0;exitY=1;exitDx=0;exitDy=0;entryPerimeter=0;" edge="1" parent="1" source="XoY1kQkNOBvQUMA4EXnS-16" target="XoY1kQkNOBvQUMA4EXnS-14">
          <mxGeometry relative="1" as="geometry">
            <mxPoint x="575" y="-50" as="sourcePoint" />
            <mxPoint x="492" y="53" as="targetPoint" />
          </mxGeometry>
        </mxCell>
        <mxCell id="XoY1kQkNOBvQUMA4EXnS-21" value="" style="endArrow=classic;html=1;rounded=0;dashed=1;dashPattern=8 8;exitX=1;exitY=0;exitDx=0;exitDy=0;" edge="1" parent="1" source="XoY1kQkNOBvQUMA4EXnS-14" target="XoY1kQkNOBvQUMA4EXnS-16">
          <mxGeometry width="50" height="50" relative="1" as="geometry">
            <mxPoint x="510" y="50" as="sourcePoint" />
            <mxPoint x="605" y="-35" as="targetPoint" />
          </mxGeometry>
        </mxCell>
        <mxCell id="XoY1kQkNOBvQUMA4EXnS-22" value="" style="endArrow=classic;html=1;rounded=0;exitX=0.613;exitY=0.976;exitDx=0;exitDy=0;exitPerimeter=0;entryX=0.278;entryY=0.097;entryDx=0;entryDy=0;entryPerimeter=0;" edge="1" parent="1" source="XoY1kQkNOBvQUMA4EXnS-16" target="XoY1kQkNOBvQUMA4EXnS-15">
          <mxGeometry relative="1" as="geometry">
            <mxPoint x="717.5" y="-10" as="sourcePoint" />
            <mxPoint x="560.5" y="112" as="targetPoint" />
          </mxGeometry>
        </mxCell>
        <mxCell id="XoY1kQkNOBvQUMA4EXnS-23" value="" style="endArrow=classic;html=1;rounded=0;dashed=1;dashPattern=8 8;exitX=0.635;exitY=-0.014;exitDx=0;exitDy=0;exitPerimeter=0;entryX=1;entryY=1;entryDx=0;entryDy=0;" edge="1" parent="1" source="XoY1kQkNOBvQUMA4EXnS-15" target="XoY1kQkNOBvQUMA4EXnS-16">
          <mxGeometry width="50" height="50" relative="1" as="geometry">
            <mxPoint x="655.004931143239" y="110.8718858320542" as="sourcePoint" />
            <mxPoint x="594.0954237288136" y="-30" as="targetPoint" />
          </mxGeometry>
        </mxCell>
        <mxCell id="XoY1kQkNOBvQUMA4EXnS-24" value="&lt;font style=&quot;font-size: 16px;&quot;&gt;Edgeworker2&lt;/font&gt;" style="ellipse;whiteSpace=wrap;html=1;align=center;fontSize=16;" vertex="1" parent="1">
          <mxGeometry x="220" y="410" width="112.5" height="60" as="geometry" />
        </mxCell>
        <mxCell id="XoY1kQkNOBvQUMA4EXnS-25" value="&lt;font style=&quot;font-size: 18px;&quot;&gt;Edgemaster2&lt;/font&gt;" style="ellipse;whiteSpace=wrap;html=1;align=center;fillColor=#dae8fc;strokeColor=#6c8ebf;fontSize=18;" vertex="1" parent="1">
          <mxGeometry x="550" y="280" width="135" height="60" as="geometry" />
        </mxCell>
        <mxCell id="XoY1kQkNOBvQUMA4EXnS-26" value="" style="endArrow=classic;html=1;rounded=0;entryX=0.34;entryY=0.078;entryDx=0;entryDy=0;exitX=0;exitY=1;exitDx=0;exitDy=0;entryPerimeter=0;" edge="1" parent="1" source="XoY1kQkNOBvQUMA4EXnS-25" target="XoY1kQkNOBvQUMA4EXnS-31">
          <mxGeometry relative="1" as="geometry">
            <mxPoint x="435" y="462" as="sourcePoint" />
            <mxPoint x="470" y="430" as="targetPoint" />
          </mxGeometry>
        </mxCell>
        <mxCell id="XoY1kQkNOBvQUMA4EXnS-27" value="" style="endArrow=classic;html=1;rounded=0;dashed=1;dashPattern=8 8;exitX=0.692;exitY=-0.008;exitDx=0;exitDy=0;exitPerimeter=0;" edge="1" parent="1" source="XoY1kQkNOBvQUMA4EXnS-31" target="XoY1kQkNOBvQUMA4EXnS-25">
          <mxGeometry width="50" height="50" relative="1" as="geometry">
            <mxPoint x="502" y="436" as="sourcePoint" />
            <mxPoint x="535" y="340" as="targetPoint" />
          </mxGeometry>
        </mxCell>
        <mxCell id="XoY1kQkNOBvQUMA4EXnS-28" value="" style="endArrow=classic;html=1;rounded=0;exitX=0.673;exitY=1.024;exitDx=0;exitDy=0;exitPerimeter=0;entryX=0.281;entryY=0.122;entryDx=0;entryDy=0;entryPerimeter=0;" edge="1" parent="1" source="XoY1kQkNOBvQUMA4EXnS-25" target="XoY1kQkNOBvQUMA4EXnS-30">
          <mxGeometry relative="1" as="geometry">
            <mxPoint x="604" y="341" as="sourcePoint" />
            <mxPoint x="572" y="429" as="targetPoint" />
          </mxGeometry>
        </mxCell>
        <mxCell id="XoY1kQkNOBvQUMA4EXnS-29" value="" style="endArrow=classic;html=1;rounded=0;dashed=1;dashPattern=8 8;exitX=0.565;exitY=0.018;exitDx=0;exitDy=0;exitPerimeter=0;entryX=1;entryY=1;entryDx=0;entryDy=0;" edge="1" parent="1" source="XoY1kQkNOBvQUMA4EXnS-30" target="XoY1kQkNOBvQUMA4EXnS-25">
          <mxGeometry width="50" height="50" relative="1" as="geometry">
            <mxPoint x="603.6399999999999" y="429.5050000000001" as="sourcePoint" />
            <mxPoint x="617" y="349" as="targetPoint" />
          </mxGeometry>
        </mxCell>
        <mxCell id="XoY1kQkNOBvQUMA4EXnS-30" value="&lt;font style=&quot;font-size: 16px;&quot;&gt;Edgeworker2&lt;/font&gt;" style="ellipse;whiteSpace=wrap;html=1;align=center;fontSize=16;" vertex="1" parent="1">
          <mxGeometry x="635" y="405" width="110" height="60" as="geometry" />
        </mxCell>
        <mxCell id="XoY1kQkNOBvQUMA4EXnS-31" value="&lt;font style=&quot;font-size: 16px;&quot;&gt;Edgeworker1&lt;/font&gt;" style="ellipse;whiteSpace=wrap;html=1;align=center;fontSize=16;" vertex="1" parent="1">
          <mxGeometry x="500" y="410" width="120" height="50" as="geometry" />
        </mxCell>
        <mxCell id="XoY1kQkNOBvQUMA4EXnS-32" value="" style="endArrow=classic;html=1;rounded=0;fillColor=#dae8fc;strokeColor=#000000;strokeWidth=4;exitX=0.751;exitY=0.978;exitDx=0;exitDy=0;exitPerimeter=0;" edge="1" parent="1" source="XoY1kQkNOBvQUMA4EXnS-14" target="XoY1kQkNOBvQUMA4EXnS-25">
          <mxGeometry relative="1" as="geometry">
            <mxPoint x="508" y="180" as="sourcePoint" />
            <mxPoint x="320" y="326" as="targetPoint" />
          </mxGeometry>
        </mxCell>
        <mxCell id="XoY1kQkNOBvQUMA4EXnS-33" value="&lt;font style=&quot;font-size: 27px;&quot;&gt;Cloud&lt;/font&gt;" style="ellipse;whiteSpace=wrap;html=1;align=center;fillColor=#dae8fc;strokeColor=#6c8ebf;fontSize=27;" vertex="1" parent="1">
          <mxGeometry x="605" y="-350" width="140" height="80" as="geometry" />
        </mxCell>
        <mxCell id="XoY1kQkNOBvQUMA4EXnS-34" value="&lt;font style=&quot;font-size: 18px;&quot;&gt;FogMaster2&lt;/font&gt;" style="ellipse;whiteSpace=wrap;html=1;align=center;fillColor=#dae8fc;strokeColor=#6c8ebf;fontSize=18;" vertex="1" parent="1">
          <mxGeometry x="760" y="-100" width="125" height="70" as="geometry" />
        </mxCell>
        <mxCell id="XoY1kQkNOBvQUMA4EXnS-35" value="" style="endArrow=classic;html=1;rounded=0;entryX=0.56;entryY=-0.024;entryDx=0;entryDy=0;entryPerimeter=0;fillColor=#dae8fc;strokeColor=#000000;strokeWidth=4;exitX=0;exitY=1;exitDx=0;exitDy=0;" edge="1" parent="1" source="XoY1kQkNOBvQUMA4EXnS-33" target="XoY1kQkNOBvQUMA4EXnS-16">
          <mxGeometry relative="1" as="geometry">
            <mxPoint x="666" y="-210" as="sourcePoint" />
            <mxPoint x="520" y="-75" as="targetPoint" />
          </mxGeometry>
        </mxCell>
        <mxCell id="XoY1kQkNOBvQUMA4EXnS-36" value="" style="endArrow=classic;html=1;rounded=0;dashed=1;dashPattern=8 8;exitX=0.74;exitY=0.095;exitDx=0;exitDy=0;exitPerimeter=0;" edge="1" parent="1" source="XoY1kQkNOBvQUMA4EXnS-16" target="XoY1kQkNOBvQUMA4EXnS-33">
          <mxGeometry width="50" height="50" relative="1" as="geometry">
            <mxPoint x="559" y="-71" as="sourcePoint" />
            <mxPoint x="693" y="-205" as="targetPoint" />
          </mxGeometry>
        </mxCell>
        <mxCell id="XoY1kQkNOBvQUMA4EXnS-37" value="" style="endArrow=classic;html=1;rounded=0;entryX=0;entryY=0;entryDx=0;entryDy=0;fillColor=#dae8fc;strokeColor=#000000;strokeWidth=4;" edge="1" parent="1" source="XoY1kQkNOBvQUMA4EXnS-33" target="XoY1kQkNOBvQUMA4EXnS-34">
          <mxGeometry relative="1" as="geometry">
            <mxPoint x="771" y="-260" as="sourcePoint" />
            <mxPoint x="690" y="-130" as="targetPoint" />
          </mxGeometry>
        </mxCell>
        <mxCell id="XoY1kQkNOBvQUMA4EXnS-38" value="" style="endArrow=classic;html=1;rounded=0;dashed=1;dashPattern=8 8;exitX=0.333;exitY=0.012;exitDx=0;exitDy=0;exitPerimeter=0;entryX=1;entryY=1;entryDx=0;entryDy=0;" edge="1" parent="1" source="XoY1kQkNOBvQUMA4EXnS-34" target="XoY1kQkNOBvQUMA4EXnS-33">
          <mxGeometry width="50" height="50" relative="1" as="geometry">
            <mxPoint x="713" y="-121" as="sourcePoint" />
            <mxPoint x="796" y="-250" as="targetPoint" />
          </mxGeometry>
        </mxCell>
        <mxCell id="XoY1kQkNOBvQUMA4EXnS-39" value="&lt;font style=&quot;font-size: 18px;&quot;&gt;FogWorker1&lt;/font&gt;" style="ellipse;whiteSpace=wrap;html=1;align=center;fontSize=18;" vertex="1" parent="1">
          <mxGeometry x="680" y="80" width="110" height="60" as="geometry" />
        </mxCell>
        <mxCell id="XoY1kQkNOBvQUMA4EXnS-40" value="&lt;font style=&quot;font-size: 18px;&quot;&gt;FogWorker2&lt;/font&gt;" style="ellipse;whiteSpace=wrap;html=1;align=center;fontSize=18;" vertex="1" parent="1">
          <mxGeometry x="870" y="80" width="105" height="60" as="geometry" />
        </mxCell>
        <mxCell id="XoY1kQkNOBvQUMA4EXnS-41" value="" style="endArrow=classic;html=1;rounded=0;entryX=0.61;entryY=0;entryDx=0;entryDy=0;exitX=0;exitY=1;exitDx=0;exitDy=0;entryPerimeter=0;" edge="1" parent="1" source="XoY1kQkNOBvQUMA4EXnS-34" target="XoY1kQkNOBvQUMA4EXnS-39">
          <mxGeometry relative="1" as="geometry">
            <mxPoint x="803" y="-40" as="sourcePoint" />
            <mxPoint x="847" y="43" as="targetPoint" />
          </mxGeometry>
        </mxCell>
        <mxCell id="XoY1kQkNOBvQUMA4EXnS-42" value="" style="endArrow=classic;html=1;rounded=0;entryX=0.278;entryY=0.097;entryDx=0;entryDy=0;entryPerimeter=0;exitX=1;exitY=1;exitDx=0;exitDy=0;" edge="1" parent="1" source="XoY1kQkNOBvQUMA4EXnS-34" target="XoY1kQkNOBvQUMA4EXnS-40">
          <mxGeometry relative="1" as="geometry">
            <mxPoint x="862" y="-32" as="sourcePoint" />
            <mxPoint x="915.5" y="102" as="targetPoint" />
          </mxGeometry>
        </mxCell>
        <mxCell id="XoY1kQkNOBvQUMA4EXnS-43" value="" style="endArrow=classic;html=1;rounded=0;dashed=1;dashPattern=8 8;exitX=0.635;exitY=-0.014;exitDx=0;exitDy=0;exitPerimeter=0;entryX=0.992;entryY=0.582;entryDx=0;entryDy=0;entryPerimeter=0;" edge="1" parent="1" source="XoY1kQkNOBvQUMA4EXnS-40" target="XoY1kQkNOBvQUMA4EXnS-34">
          <mxGeometry width="50" height="50" relative="1" as="geometry">
            <mxPoint x="1010.004931143239" y="100.8718858320542" as="sourcePoint" />
            <mxPoint x="892" y="-40" as="targetPoint" />
          </mxGeometry>
        </mxCell>
        <mxCell id="XoY1kQkNOBvQUMA4EXnS-44" value="" style="endArrow=classic;html=1;rounded=0;dashed=1;dashPattern=8 8;exitX=1;exitY=0;exitDx=0;exitDy=0;entryX=0.351;entryY=0.957;entryDx=0;entryDy=0;entryPerimeter=0;" edge="1" parent="1" source="XoY1kQkNOBvQUMA4EXnS-39" target="XoY1kQkNOBvQUMA4EXnS-34">
          <mxGeometry width="50" height="50" relative="1" as="geometry">
            <mxPoint x="765" y="89" as="sourcePoint" />
            <mxPoint x="884.5099999999998" y="378.5300000000002" as="targetPoint" />
          </mxGeometry>
        </mxCell>
        <mxCell id="XoY1kQkNOBvQUMA4EXnS-45" value="" style="shape=curlyBracket;whiteSpace=wrap;html=1;rounded=1;flipH=1;labelPosition=right;verticalLabelPosition=middle;align=left;verticalAlign=middle;" vertex="1" parent="1">
          <mxGeometry x="1080" y="-115" width="50" height="280" as="geometry" />
        </mxCell>
        <mxCell id="XoY1kQkNOBvQUMA4EXnS-46" value="Fog Layer &lt;br style=&quot;font-size: 21px;&quot;&gt;(situation refinement)" style="text;html=1;strokeColor=none;fillColor=none;align=center;verticalAlign=middle;whiteSpace=wrap;rounded=0;fontSize=21;" vertex="1" parent="1">
          <mxGeometry x="1120" y="-10" width="200" height="80" as="geometry" />
        </mxCell>
        <mxCell id="XoY1kQkNOBvQUMA4EXnS-47" value="" style="shape=curlyBracket;whiteSpace=wrap;html=1;rounded=1;flipH=1;labelPosition=right;verticalLabelPosition=middle;align=left;verticalAlign=middle;" vertex="1" parent="1">
          <mxGeometry x="1080" y="190" width="50" height="280" as="geometry" />
        </mxCell>
        <mxCell id="XoY1kQkNOBvQUMA4EXnS-48" value="Edge Layer&lt;br style=&quot;font-size: 21px;&quot;&gt;(Object refinement)" style="text;html=1;strokeColor=none;fillColor=none;align=center;verticalAlign=middle;whiteSpace=wrap;rounded=0;fontSize=21;" vertex="1" parent="1">
          <mxGeometry x="1120" y="286.25" width="200" height="87.5" as="geometry" />
        </mxCell>
        <mxCell id="XoY1kQkNOBvQUMA4EXnS-49" value="" style="endArrow=classic;html=1;rounded=0;fillColor=#dae8fc;strokeColor=#000000;strokeWidth=4;" edge="1" parent="1">
          <mxGeometry relative="1" as="geometry">
            <mxPoint x="290" y="-350" as="sourcePoint" />
            <mxPoint x="370" y="-350" as="targetPoint" />
          </mxGeometry>
        </mxCell>
        <mxCell id="XoY1kQkNOBvQUMA4EXnS-50" value="" style="endArrow=classic;html=1;rounded=0;dashed=1;dashPattern=8 8;" edge="1" parent="1">
          <mxGeometry width="50" height="50" relative="1" as="geometry">
            <mxPoint x="287" y="-285" as="sourcePoint" />
            <mxPoint x="367" y="-285" as="targetPoint" />
          </mxGeometry>
        </mxCell>
        <mxCell id="XoY1kQkNOBvQUMA4EXnS-51" value="" style="endArrow=classic;html=1;rounded=0;" edge="1" parent="1">
          <mxGeometry relative="1" as="geometry">
            <mxPoint x="290" y="-325" as="sourcePoint" />
            <mxPoint x="370" y="-325" as="targetPoint" />
          </mxGeometry>
        </mxCell>
        <mxCell id="XoY1kQkNOBvQUMA4EXnS-52" value="Query" style="text;html=1;strokeColor=none;fillColor=none;align=center;verticalAlign=middle;whiteSpace=wrap;rounded=0;fontSize=19;" vertex="1" parent="1">
          <mxGeometry x="110" y="-370" width="177" height="50" as="geometry" />
        </mxCell>
        <mxCell id="XoY1kQkNOBvQUMA4EXnS-54" value="Results" style="text;html=1;strokeColor=none;fillColor=none;align=center;verticalAlign=middle;whiteSpace=wrap;rounded=0;fontSize=18;" vertex="1" parent="1">
          <mxGeometry x="143.5" y="-305" width="110" height="30" as="geometry" />
        </mxCell>
        <mxCell id="XoY1kQkNOBvQUMA4EXnS-55" value="" style="shape=curlyBracket;whiteSpace=wrap;html=1;rounded=1;flipH=1;labelPosition=right;verticalLabelPosition=middle;align=left;verticalAlign=middle;" vertex="1" parent="1">
          <mxGeometry x="1080" y="-370" width="50" height="175" as="geometry" />
        </mxCell>
        <mxCell id="XoY1kQkNOBvQUMA4EXnS-56" value="Cloud Layer &lt;br style=&quot;font-size: 21px;&quot;&gt;(Threat refinement)" style="text;html=1;strokeColor=none;fillColor=none;align=center;verticalAlign=middle;whiteSpace=wrap;rounded=0;fontSize=21;" vertex="1" parent="1">
          <mxGeometry x="1120" y="-308.75" width="191" height="65" as="geometry" />
        </mxCell>
        <mxCell id="XoY1kQkNOBvQUMA4EXnS-58" value="Horizontal Fusion" style="text;html=1;strokeColor=none;fillColor=none;align=center;verticalAlign=middle;whiteSpace=wrap;rounded=0;fontSize=20;" vertex="1" parent="1">
          <mxGeometry x="340" y="-100" width="60" height="50" as="geometry" />
        </mxCell>
        <mxCell id="XoY1kQkNOBvQUMA4EXnS-61" value="Object refinement" style="text;html=1;strokeColor=none;fillColor=none;align=center;verticalAlign=middle;whiteSpace=wrap;rounded=0;rotation=-90;fontSize=19;" vertex="1" parent="1">
          <mxGeometry x="-82.5" y="350" width="205" height="30" as="geometry" />
        </mxCell>
        <mxCell id="XoY1kQkNOBvQUMA4EXnS-62" value="" style="rounded=1;whiteSpace=wrap;html=1;fillColor=#d5e8d4;strokeColor=#82b366;" vertex="1" parent="1">
          <mxGeometry x="-15" y="-100" width="65" height="240" as="geometry" />
        </mxCell>
        <mxCell id="XoY1kQkNOBvQUMA4EXnS-63" value="Situation refinement" style="text;html=1;strokeColor=none;fillColor=none;align=center;verticalAlign=middle;whiteSpace=wrap;rounded=0;rotation=-90;fontSize=19;" vertex="1" parent="1">
          <mxGeometry x="-75" y="-10" width="185" height="70" as="geometry" />
        </mxCell>
        <mxCell id="XoY1kQkNOBvQUMA4EXnS-64" value="" style="rounded=1;whiteSpace=wrap;html=1;fillColor=#f8cecc;strokeColor=#b85450;" vertex="1" parent="1">
          <mxGeometry x="-22.5" y="-392.5" width="65" height="197.5" as="geometry" />
        </mxCell>
        <mxCell id="XoY1kQkNOBvQUMA4EXnS-65" value="Threat refinement" style="text;html=1;strokeColor=none;fillColor=none;align=center;verticalAlign=middle;whiteSpace=wrap;rounded=0;rotation=-90;fontSize=19;" vertex="1" parent="1">
          <mxGeometry x="-72.5" y="-308.75" width="165" height="30" as="geometry" />
        </mxCell>
        <mxCell id="XoY1kQkNOBvQUMA4EXnS-66" value="Horizontal Fusion" style="text;html=1;strokeColor=none;fillColor=none;align=center;verticalAlign=middle;whiteSpace=wrap;rounded=0;fontSize=20;" vertex="1" parent="1">
          <mxGeometry x="685" y="-100" width="60" height="50" as="geometry" />
        </mxCell>
        <mxCell id="XoY1kQkNOBvQUMA4EXnS-68" value="Horizontal Fusion" style="text;html=1;strokeColor=none;fillColor=none;align=center;verticalAlign=middle;whiteSpace=wrap;rounded=0;fontSize=20;" vertex="1" parent="1">
          <mxGeometry x="92.5" y="280" width="60" height="50" as="geometry" />
        </mxCell>
        <mxCell id="XoY1kQkNOBvQUMA4EXnS-69" value="Horizontal Fusion" style="text;html=1;strokeColor=none;fillColor=none;align=center;verticalAlign=middle;whiteSpace=wrap;rounded=0;fontSize=20;" vertex="1" parent="1">
          <mxGeometry x="440" y="280" width="60" height="50" as="geometry" />
        </mxCell>
        <mxCell id="XoY1kQkNOBvQUMA4EXnS-70" value="Vertical Fusion" style="text;html=1;strokeColor=none;fillColor=none;align=center;verticalAlign=middle;whiteSpace=wrap;rounded=0;fontSize=20;" vertex="1" parent="1">
          <mxGeometry x="140" y="180" width="140" height="50" as="geometry" />
        </mxCell>
        <mxCell id="XoY1kQkNOBvQUMA4EXnS-71" value="Vertical Fusion" style="text;html=1;align=center;verticalAlign=middle;whiteSpace=wrap;rounded=0;fontSize=20;" vertex="1" parent="1">
          <mxGeometry x="380" y="-190" width="142.5" height="50" as="geometry" />
        </mxCell>
        <mxCell id="XoY1kQkNOBvQUMA4EXnS-73" value="" style="rounded=0;whiteSpace=wrap;html=1;" vertex="1" parent="1">
          <mxGeometry x="230" y="-260" width="1210" height="550" as="geometry" />
        </mxCell>
        <mxCell id="XoY1kQkNOBvQUMA4EXnS-74" value="WorkerNode" style="swimlane;whiteSpace=wrap;html=1;fillColor=#dae8fc;strokeColor=#6c8ebf;fontSize=18;" vertex="1" parent="1">
          <mxGeometry x="480" y="-190" width="150" height="140" as="geometry" />
        </mxCell>
        <UserObject label="RSP" treeRoot="1" id="XoY1kQkNOBvQUMA4EXnS-75">
          <mxCell style="whiteSpace=wrap;html=1;align=center;treeFolding=1;treeMoving=1;newEdgeStyle={&quot;edgeStyle&quot;:&quot;elbowEdgeStyle&quot;,&quot;startArrow&quot;:&quot;none&quot;,&quot;endArrow&quot;:&quot;none&quot;};fillColor=#f5f5f5;fontColor=#333333;strokeColor=#666666;fontSize=20;" vertex="1" parent="XoY1kQkNOBvQUMA4EXnS-74">
            <mxGeometry x="15" y="50" width="120" height="60" as="geometry" />
          </mxCell>
        </UserObject>
        <mxCell id="XoY1kQkNOBvQUMA4EXnS-76" value="MasterNode" style="swimlane;whiteSpace=wrap;html=1;fillColor=#fff2cc;strokeColor=#d6b656;fontSize=18;" vertex="1" parent="1">
          <mxGeometry x="865" y="-100" width="315" height="290" as="geometry" />
        </mxCell>
        <UserObject label="RSP" treeRoot="1" id="XoY1kQkNOBvQUMA4EXnS-77">
          <mxCell style="whiteSpace=wrap;html=1;align=center;treeFolding=1;treeMoving=1;newEdgeStyle={&quot;edgeStyle&quot;:&quot;elbowEdgeStyle&quot;,&quot;startArrow&quot;:&quot;none&quot;,&quot;endArrow&quot;:&quot;none&quot;};fillColor=#f5f5f5;fontColor=#333333;strokeColor=#666666;fontSize=20;" vertex="1" parent="XoY1kQkNOBvQUMA4EXnS-76">
            <mxGeometry x="25" y="40" width="135" height="100" as="geometry" />
          </mxCell>
        </UserObject>
        <mxCell id="XoY1kQkNOBvQUMA4EXnS-78" value="UCI" style="rounded=0;whiteSpace=wrap;html=1;fontSize=20;" vertex="1" parent="XoY1kQkNOBvQUMA4EXnS-76">
          <mxGeometry x="240" y="40" width="50" height="100" as="geometry" />
        </mxCell>
        <mxCell id="XoY1kQkNOBvQUMA4EXnS-79" value="NodePlatform" style="shape=cylinder;whiteSpace=wrap;html=1;boundedLbl=1;backgroundOutline=1;fillColor=#d5e8d4;strokeColor=#82b366;fontSize=17;" vertex="1" parent="XoY1kQkNOBvQUMA4EXnS-76">
          <mxGeometry x="180" y="210" width="110" height="65" as="geometry" />
        </mxCell>
        <mxCell id="XoY1kQkNOBvQUMA4EXnS-80" value="DataBase" style="shape=datastore;whiteSpace=wrap;html=1;fillColor=#d5e8d4;strokeColor=#82b366;fontSize=17;" vertex="1" parent="XoY1kQkNOBvQUMA4EXnS-76">
          <mxGeometry x="37.5" y="210" width="110" height="60" as="geometry" />
        </mxCell>
        <mxCell id="XoY1kQkNOBvQUMA4EXnS-81" value="" style="endArrow=classic;startArrow=classic;html=1;rounded=0;fontSize=11;entryX=1;entryY=0.5;entryDx=0;entryDy=0;exitX=0;exitY=0.5;exitDx=0;exitDy=0;" edge="1" parent="XoY1kQkNOBvQUMA4EXnS-76" source="XoY1kQkNOBvQUMA4EXnS-78" target="XoY1kQkNOBvQUMA4EXnS-77">
          <mxGeometry width="50" height="50" relative="1" as="geometry">
            <mxPoint x="103" y="220" as="sourcePoint" />
            <mxPoint x="103" y="150" as="targetPoint" />
          </mxGeometry>
        </mxCell>
        <mxCell id="XoY1kQkNOBvQUMA4EXnS-82" style="edgeStyle=orthogonalEdgeStyle;rounded=0;orthogonalLoop=1;jettySize=auto;html=1;exitX=1;exitY=0.75;exitDx=0;exitDy=0;entryX=0.5;entryY=0;entryDx=0;entryDy=0;fontSize=11;startArrow=classic;startFill=1;" edge="1" parent="XoY1kQkNOBvQUMA4EXnS-76" source="XoY1kQkNOBvQUMA4EXnS-77" target="XoY1kQkNOBvQUMA4EXnS-79">
          <mxGeometry relative="1" as="geometry">
            <mxPoint x="225" y="130" as="sourcePoint" />
            <mxPoint x="175" y="200" as="targetPoint" />
            <Array as="points">
              <mxPoint x="185" y="115" />
              <mxPoint x="185" y="170" />
              <mxPoint x="242" y="170" />
            </Array>
          </mxGeometry>
        </mxCell>
        <mxCell id="XoY1kQkNOBvQUMA4EXnS-83" style="edgeStyle=orthogonalEdgeStyle;rounded=0;orthogonalLoop=1;jettySize=auto;html=1;entryX=1;entryY=0.5;entryDx=0;entryDy=0;strokeWidth=1;fontSize=11;startArrow=classic;startFill=1;" edge="1" parent="1" source="XoY1kQkNOBvQUMA4EXnS-84" target="XoY1kQkNOBvQUMA4EXnS-78">
          <mxGeometry relative="1" as="geometry" />
        </mxCell>
        <mxCell id="XoY1kQkNOBvQUMA4EXnS-84" value="" style="shape=actor;whiteSpace=wrap;html=1;" vertex="1" parent="1">
          <mxGeometry x="1380" y="-70" width="40" height="60" as="geometry" />
        </mxCell>
        <mxCell id="XoY1kQkNOBvQUMA4EXnS-85" style="edgeStyle=orthogonalEdgeStyle;rounded=0;orthogonalLoop=1;jettySize=auto;html=1;exitX=0;exitY=0.5;exitDx=0;exitDy=0;exitPerimeter=0;entryX=1;entryY=0.5;entryDx=0;entryDy=0;fontSize=11;" edge="1" parent="1" source="XoY1kQkNOBvQUMA4EXnS-87" target="XoY1kQkNOBvQUMA4EXnS-74">
          <mxGeometry relative="1" as="geometry">
            <mxPoint x="690" y="-40.000000000000114" as="sourcePoint" />
          </mxGeometry>
        </mxCell>
        <mxCell id="XoY1kQkNOBvQUMA4EXnS-86" style="edgeStyle=orthogonalEdgeStyle;rounded=0;orthogonalLoop=1;jettySize=auto;html=1;fontSize=11;exitX=1;exitY=0.5;exitDx=0;exitDy=0;exitPerimeter=0;" edge="1" parent="1" source="XoY1kQkNOBvQUMA4EXnS-87">
          <mxGeometry relative="1" as="geometry">
            <mxPoint x="890" y="-10" as="targetPoint" />
            <mxPoint x="830" y="-40" as="sourcePoint" />
          </mxGeometry>
        </mxCell>
        <mxCell id="XoY1kQkNOBvQUMA4EXnS-87" value="Query/Stream" style="strokeWidth=2;html=1;shape=mxgraph.flowchart.direct_data;whiteSpace=wrap;sketch=0;fontSize=17;labelBackgroundColor=none;fillColor=#e1d5e7;strokeColor=#9673a6;" vertex="1" parent="1">
          <mxGeometry x="660" y="-70" width="160" height="60" as="geometry" />
        </mxCell>
        <mxCell id="XoY1kQkNOBvQUMA4EXnS-88" value="Query/Stream" style="strokeWidth=2;html=1;shape=mxgraph.flowchart.direct_data;whiteSpace=wrap;sketch=0;fontSize=17;fillColor=#e1d5e7;strokeColor=#9673a6;" vertex="1" parent="1">
          <mxGeometry x="680" y="110" width="160" height="60" as="geometry" />
        </mxCell>
        <mxCell id="XoY1kQkNOBvQUMA4EXnS-89" value="WorkerNode" style="swimlane;whiteSpace=wrap;html=1;fillColor=#dae8fc;strokeColor=#6c8ebf;fontSize=18;" vertex="1" parent="1">
          <mxGeometry x="480" y="140" width="150" height="140" as="geometry" />
        </mxCell>
        <UserObject label="RSP" treeRoot="1" id="XoY1kQkNOBvQUMA4EXnS-90">
          <mxCell style="whiteSpace=wrap;html=1;align=center;treeFolding=1;treeMoving=1;newEdgeStyle={&quot;edgeStyle&quot;:&quot;elbowEdgeStyle&quot;,&quot;startArrow&quot;:&quot;none&quot;,&quot;endArrow&quot;:&quot;none&quot;};fillColor=#f5f5f5;fontColor=#333333;strokeColor=#666666;fontSize=20;" vertex="1" parent="XoY1kQkNOBvQUMA4EXnS-89">
            <mxGeometry x="15" y="50" width="120" height="60" as="geometry" />
          </mxCell>
        </UserObject>
        <mxCell id="XoY1kQkNOBvQUMA4EXnS-91" style="edgeStyle=orthogonalEdgeStyle;rounded=0;orthogonalLoop=1;jettySize=auto;html=1;exitX=0;exitY=0.5;exitDx=0;exitDy=0;exitPerimeter=0;entryX=1;entryY=0.5;entryDx=0;entryDy=0;fontSize=11;" edge="1" parent="1" source="XoY1kQkNOBvQUMA4EXnS-88" target="XoY1kQkNOBvQUMA4EXnS-89">
          <mxGeometry relative="1" as="geometry">
            <mxPoint x="710" y="-30" as="sourcePoint" />
            <mxPoint x="640" y="40" as="targetPoint" />
          </mxGeometry>
        </mxCell>
        <mxCell id="XoY1kQkNOBvQUMA4EXnS-92" style="edgeStyle=orthogonalEdgeStyle;rounded=0;orthogonalLoop=1;jettySize=auto;html=1;fontSize=11;exitX=1;exitY=0.5;exitDx=0;exitDy=0;exitPerimeter=0;entryX=0;entryY=0.5;entryDx=0;entryDy=0;" edge="1" parent="1" source="XoY1kQkNOBvQUMA4EXnS-88" target="XoY1kQkNOBvQUMA4EXnS-77">
          <mxGeometry relative="1" as="geometry">
            <mxPoint x="900" as="targetPoint" />
            <mxPoint x="810" y="-30" as="sourcePoint" />
          </mxGeometry>
        </mxCell>
        <mxCell id="XoY1kQkNOBvQUMA4EXnS-93" value="" style="endArrow=classic;startArrow=classic;html=1;rounded=0;fontSize=11;entryX=0.5;entryY=1;entryDx=0;entryDy=0;" edge="1" parent="1" target="XoY1kQkNOBvQUMA4EXnS-77">
          <mxGeometry width="50" height="50" relative="1" as="geometry">
            <mxPoint x="958" y="110" as="sourcePoint" />
            <mxPoint x="1010" y="200" as="targetPoint" />
          </mxGeometry>
        </mxCell>
        <mxCell id="XoY1kQkNOBvQUMA4EXnS-94" style="edgeStyle=orthogonalEdgeStyle;rounded=0;orthogonalLoop=1;jettySize=auto;html=1;strokeWidth=1;fontSize=11;startArrow=classic;startFill=1;entryX=0;entryY=0.5;entryDx=0;entryDy=0;" edge="1" parent="1" source="XoY1kQkNOBvQUMA4EXnS-95" target="XoY1kQkNOBvQUMA4EXnS-74">
          <mxGeometry relative="1" as="geometry">
            <mxPoint x="480" y="40" as="targetPoint" />
          </mxGeometry>
        </mxCell>
        <mxCell id="XoY1kQkNOBvQUMA4EXnS-95" value="Sensor" style="rounded=0;whiteSpace=wrap;html=1;labelBackgroundColor=none;sketch=0;strokeWidth=2;fontSize=20;" vertex="1" parent="1">
          <mxGeometry x="280" y="-160" width="100" height="40" as="geometry" />
        </mxCell>
        <mxCell id="XoY1kQkNOBvQUMA4EXnS-96" style="edgeStyle=orthogonalEdgeStyle;rounded=0;orthogonalLoop=1;jettySize=auto;html=1;strokeWidth=1;fontSize=11;startArrow=classic;startFill=1;" edge="1" parent="1" source="XoY1kQkNOBvQUMA4EXnS-97">
          <mxGeometry relative="1" as="geometry">
            <mxPoint x="480" y="200.0000000000001" as="targetPoint" />
          </mxGeometry>
        </mxCell>
        <mxCell id="XoY1kQkNOBvQUMA4EXnS-97" value="Sensor" style="rounded=0;whiteSpace=wrap;html=1;labelBackgroundColor=none;sketch=0;strokeWidth=2;fontSize=20;" vertex="1" parent="1">
          <mxGeometry x="300" y="200" width="100" height="40" as="geometry" />
        </mxCell>
      </root>
    </mxGraphModel>
  </diagram>
</mxfile>
